<?xml version="1.0" encoding="UTF-8"?> <svg xmlns="http://www.w3.org/2000/svg" width="100" height="100" viewBox="0 0 100 100"><g id="picto_LOGEMENT-SOCIAUX" transform="translate(50 50)"><g id="picto_LOGEMENT-SOCIAUX-2" data-name="picto_LOGEMENT-SOCIAUX" transform="translate(-50 -50)"><g id="fond"><path id="bLOC_ROND" data-name="bLOC ROND" d="M50,0h0a50,50,0,0,1,50,50h0a50,50,0,0,1-50,50h0A50,50,0,0,1,0,50H0A50,50,0,0,1,50,0Z" fill="#fff"></path></g><g id="picto" transform="translate(25.904 25.625)"><g id="Groupe_138" data-name="Groupe 138"><g id="Groupe_137" data-name="Groupe 137"><path id="Tracé_511" data-name="Tracé 511" d="M86.609,62.02l-3.854-4.066-5.17-5.479a1.061,1.061,0,0,0,.051-.308V41.881a1.059,1.059,0,0,0-1.058-1.058H72.456A1.059,1.059,0,0,0,71.4,41.881v4.038l-7.539-7.99-1.229-1.3a1.236,1.236,0,0,0-1.643,0L47.767,50.578a1.031,1.031,0,0,0-.167.267L37.008,62.02a1.072,1.072,0,0,0,1.556,1.474L41.781,60.1V78.3h-3.62v2.172H85.455V78.3H81.837V60.1l3.216,3.392a1.072,1.072,0,0,0,1.556-1.474ZM73.515,42.939H75.52v7.348l-2.005-2.125ZM79.665,78.3H43.952V57.81L61.809,38.974,62.88,40.1,79.665,58.488Z" transform="translate(-36.714 -36.319)" fill="#072b52"></path></g><path id="Tracé_512" data-name="Tracé 512" d="M79.605,74.2a4.876,4.876,0,0,0-2.461.675L66.387,68.209,63.6,71.285a.892.892,0,0,1-1.211.028.875.875,0,0,1-.3-.659.9.9,0,0,1,.318-.687l3.874-3.854a.948.948,0,0,1,.341-.171c.014,0,.027,0,.041-.007a.844.844,0,0,1,.459.015l5.036,1.736a7.3,7.3,0,0,0,5.608-.369l1.894-.949L79,65.05,77.1,66a5.829,5.829,0,0,1-4.466.294L67.6,64.554a2.323,2.323,0,0,0-.752-.111v-.016a2.294,2.294,0,0,0-.413.041c-.023,0-.047.013-.07.018a2.455,2.455,0,0,0-.273.069l-5.036,1.736A5.821,5.821,0,0,1,56.589,66L54.7,65.05l-.662,1.319,1.894.95a7.306,7.306,0,0,0,5.606.368l1.642-.566L61.39,68.9a2.363,2.363,0,1,0,3.267,3.413l2-2.2,10.01,6.2a.614.614,0,0,1,.3.523.623.623,0,0,1-.942.522l-4.649-2.876-.777,1.256,3.9,2.414a.617.617,0,1,1-.646,1.051l-3.905-2.419-.779,1.254,0,0,0,0,3.159,1.953A.615.615,0,0,1,72,81.136a.641.641,0,0,1-.323-.09l-3.162-1.959-.6.96A2.089,2.089,0,0,0,66.063,78.9a2.057,2.057,0,0,0-.674.126,2.1,2.1,0,0,0-2.04-1.634c-.033,0-.066.013-.1.014a2.09,2.09,0,0,0-2.07-1.857c-.035,0-.066.013-.1.014a2.083,2.083,0,0,0-3.171-1.542l-1.366.845a4.876,4.876,0,0,0-2.456-.672h-.264v1.477h.264a3.421,3.421,0,0,1,1.367.292,2.069,2.069,0,0,0-.2.869,2.1,2.1,0,0,0,2.1,2.095c.034,0,.066-.012.1-.013a2.091,2.091,0,0,0,2.071,1.856c.035,0,.066-.012.1-.014a2.091,2.091,0,0,0,2.071,1.857,2.067,2.067,0,0,0,.673-.125A2.089,2.089,0,0,0,65.5,83.808l1.342-.831,1.346.833.389-.628-.382.631a2.091,2.091,0,0,0,3.133-1.326,2.048,2.048,0,0,0,2.744-1.729c.034,0,.066.014.1.014a2.09,2.09,0,0,0,2.07-1.859c.034,0,.066.014.1.014a2.1,2.1,0,0,0,2.095-2.095,2.069,2.069,0,0,0-.2-.866,3.422,3.422,0,0,1,1.372-.294h.264V74.2Zm-22.88,2.637a.615.615,0,0,1,.3-.525l1.663-1.03a.632.632,0,0,1,.943.525.616.616,0,0,1-.294.524l-.919.569h0l-.743.461A.632.632,0,0,1,56.725,76.833ZM58.9,78.676a.612.612,0,0,1,.295-.524l1.665-1.032a.6.6,0,0,1,.323-.093.617.617,0,0,1,.323,1.144l-.71.439-.208.129h0l-.748.463A.631.631,0,0,1,58.9,78.676Zm2.17,1.843A.615.615,0,0,1,61.36,80l.919-.569h0l.746-.461a.6.6,0,0,1,.322-.094.617.617,0,0,1,.324,1.143l-1.665,1.031A.633.633,0,0,1,61.067,80.519Zm3.656,2.033a.632.632,0,0,1-.943-.525.615.615,0,0,1,.294-.524l1.664-1.03a.609.609,0,0,1,.325-.095.617.617,0,0,1,.322,1.144Zm4.564.093a.635.635,0,0,1-.326-.093l-1.027-.636A2.075,2.075,0,0,0,68.158,81a2.12,2.12,0,0,0-.042-.421l1.494.926a.616.616,0,0,1-.322,1.142Z" transform="translate(-41.752 -44.595)" fill="#072b52"></path></g></g></g></g></svg> 